<svg width="200" height="201" viewBox="0 0 200 201" fill="none" xmlns="http://www.w3.org/2000/svg">
<path d="M119.876 114.78C119.604 114.541 119.332 114.302 119.06 114.062" stroke="#002C1D" stroke-linecap="round" stroke-linejoin="round"/>
<path d="M117.436 112.628C111.327 107.188 105.408 101.497 100.555 94.9212C95.0551 87.4755 90.9572 78.7745 90.1855 69.5516C89.8214 65.2255 90.2562 60.6603 92.5279 56.9592C94.5877 53.606 97.9627 51.2582 101.495 49.519C103.278 48.6386 113.794 46.4919 118.637 54.0679C122.789 60.5625 123.702 77.0788 110.137 79.4049C103.506 80.5408 96.6692 80.8125 90.2779 78.6984C83.8866 76.5842 78.4301 71.6984 75.8105 65.4973C74.5225 62.4484 73.9083 59.1495 73.642 55.8506C73.2833 51.394 73.5605 46.7962 75.2725 42.6658C77.8322 36.5027 83.2181 31.5571 89.4736 29.2255C111.18 21.1495 134.191 27.2962 149.637 27.5408" stroke="#002C1D" stroke-linecap="round" stroke-linejoin="round"/>
<path d="M150.729 27.5462C151.093 27.5462 151.457 27.5408 151.816 27.5299" stroke="#002C1D" stroke-linecap="round" stroke-linejoin="round"/>
<path d="M175.74 21.3288C175.468 22.6169 174.984 23.8451 174.436 25.0462C172.762 24.1984 170.354 23.6658 167.68 23.6658C164.772 23.6658 162.186 24.2962 160.506 25.2745C158.234 21.9647 157.349 14.7745 161.169 13.6821C164.278 12.7962 166.088 18.6114 166.68 20.6767C166.474 18.2093 167.37 15.6658 169.082 13.8777C169.349 13.6006 169.637 13.3397 169.984 13.1821C170.387 12.9973 170.849 12.9756 171.294 13.019C173.055 13.1984 174.588 14.5027 175.327 16.1169C176.071 17.7256 176.104 19.5951 175.74 21.3288Z" fill="white" stroke="#002C1D" stroke-linecap="round" stroke-linejoin="round"/>
<path d="M176.838 27.9158C176.838 29.269 175.463 30.4756 173.327 31.2527V24.5734C173.724 24.7147 174.093 24.8723 174.436 25.0462C175.925 25.8071 176.838 26.8125 176.838 27.9158Z" fill="#03E59D" stroke="#002C1D" stroke-linecap="round" stroke-linejoin="round"/>
<path d="M173.327 24.5734V31.2527C171.772 31.8179 169.811 32.1603 167.68 32.1603H167.62V23.6658H167.68C169.811 23.6658 171.772 24.0027 173.327 24.5734Z" fill="white" stroke="#002C1D" stroke-linecap="round" stroke-linejoin="round"/>
<path d="M167.62 23.6658V32.1603C165.403 32.1603 163.381 31.7799 161.805 31.1658V24.6603C163.381 24.0462 165.408 23.6712 167.62 23.6658Z" fill="#03E59D" stroke="#002C1D" stroke-linecap="round" stroke-linejoin="round"/>
<path d="M161.805 24.6603V31.1658C159.8 30.394 158.522 29.2256 158.522 27.9158C158.522 26.9158 159.267 26.0027 160.506 25.2745C160.892 25.0516 161.327 24.8397 161.805 24.6603Z" fill="white" stroke="#002C1D" stroke-linecap="round" stroke-linejoin="round"/>
<path d="M28.4029 87.6821H76.5496C78.9681 87.6821 81.4735 89.0408 82.979 91.1766L91.1692 102.747C92.68 104.878 95.18 106.242 97.5985 106.242H142.81C146.262 106.242 149.669 108.97 150.419 112.34L162.202 165.101C162.952 168.47 160.767 171.198 157.316 171.198H47.055C43.604 171.198 40.1964 168.47 39.4464 165.101L23.517 93.7853C22.767 90.4158 24.9518 87.6875 28.4029 87.6875V87.6821Z" fill="#03E59D"/>
<path d="M28.4029 87.6821H76.5496C78.9681 87.6821 81.4735 89.0408 82.979 91.1766L91.1692 102.747C92.68 104.878 95.18 106.242 97.5985 106.242H142.81C146.262 106.242 149.669 108.97 150.419 112.34L162.202 165.101C162.952 168.47 160.767 171.198 157.316 171.198H47.055C43.604 171.198 40.1964 168.47 39.4464 165.101L23.517 93.7853C22.767 90.4158 24.9518 87.6875 28.4029 87.6875V87.6821Z" fill="#03E59D" stroke="#002C1D" stroke-linecap="round" stroke-linejoin="round"/>
<path d="M28.4029 87.6821H76.5496C78.9681 87.6821 81.4735 89.0408 82.979 91.1766L91.1692 102.747C92.68 104.878 95.18 106.242 97.5985 106.242H142.81C146.262 106.242 149.669 108.97 150.419 112.34L162.202 165.101C162.952 168.47 160.767 171.198 157.316 171.198H47.055C43.604 171.198 40.1964 168.47 39.4464 165.101L23.517 93.7853C22.767 90.4158 24.9518 87.6875 28.4029 87.6875V87.6821Z" stroke="#002C1D" stroke-linecap="round" stroke-linejoin="round"/>
<path d="M170.169 94.4375H59.8322C57.5116 94.4375 55.5279 96.1168 55.1529 98.4103L43.93 166.508C43.5061 169.095 45.5007 171.193 48.3866 171.193H157.234C160.479 171.193 163.495 168.834 163.974 165.927L174.849 99.9484C175.327 97.0625 173.099 94.4375 170.169 94.4375Z" fill="white" stroke="#002C1D" stroke-linecap="round" stroke-linejoin="round"/>
<path d="M144.104 131.177H95.3486C92.326 131.177 89.8757 133.627 89.8757 136.649C89.8757 139.672 92.326 142.122 95.3486 142.122H144.104C147.127 142.122 149.577 139.672 149.577 136.649C149.577 133.627 147.127 131.177 144.104 131.177Z" fill="white" stroke="#002C1D" stroke-linecap="round" stroke-linejoin="round"/>
<path d="M135.109 178.785C135.821 178.785 136.533 178.514 137.077 177.97C138.164 176.883 138.164 175.122 137.077 174.035L114.881 151.84C113.794 150.753 112.033 150.753 110.946 151.84C109.859 152.927 109.859 154.688 110.946 155.774L133.142 177.97C133.686 178.514 134.397 178.785 135.109 178.785Z" fill="#002C1D" stroke="#002C1D" stroke-linecap="round" stroke-linejoin="round"/>
<path d="M143.479 188.541C144.55 188.541 145.615 188.133 146.43 187.318C148.061 185.688 148.061 183.046 146.43 181.416L122.604 157.59C120.974 155.959 118.332 155.959 116.702 157.59C115.071 159.22 115.071 161.861 116.702 163.492L140.528 187.318C141.343 188.133 142.414 188.541 143.479 188.541Z" fill="#03E59D" stroke="#002C1D" stroke-linecap="round" stroke-linejoin="round"/>
<path d="M66.5116 136.736C66.5116 121.416 78.979 108.948 94.2996 108.948C109.62 108.948 122.088 121.416 122.088 136.736C122.088 152.057 109.62 164.524 94.2996 164.524C78.979 164.524 66.5116 152.057 66.5116 136.736ZM72.0768 136.736C72.0768 148.992 82.0442 158.959 94.2996 158.959C106.555 158.959 116.522 148.992 116.522 136.736C116.522 124.481 106.555 114.514 94.2996 114.514C82.0442 114.514 72.0768 124.481 72.0768 136.736Z" fill="white" stroke="#002C1D" stroke-linecap="round" stroke-linejoin="round"/>
</svg>
